<svg xmlns="http://www.w3.org/2000/svg" xmlns:xlink="http://www.w3.org/1999/xlink" preserveAspectRatio="xMidYMid" width="79.969" height="68.969" viewBox="0 0 79.969 68.969">
  <defs>
    <style>
      .cls-1 {
        fill: #e13b30;
        fill-rule: evenodd;
      }
    </style>
  </defs>
  <path d="M66.771,68.961 L66.771,64.062 L70.212,64.062 L68.995,62.815 L70.517,61.254 L68.995,59.694 L70.517,58.135 L68.995,56.574 L70.517,55.014 L68.995,53.453 L70.517,51.893 L68.995,50.334 L70.517,48.773 L68.995,47.212 L70.517,45.652 L68.995,44.092 L70.517,42.531 L68.995,40.972 L70.989,38.928 L70.989,38.804 L64.512,38.804 L64.433,39.509 L64.433,40.428 C64.433,40.988 64.027,41.448 63.534,41.448 L56.658,41.448 C56.164,41.448 55.759,40.990 55.759,40.428 L55.759,39.519 L24.219,39.519 L24.219,40.428 C24.219,40.988 23.814,41.448 23.320,41.448 L16.444,41.448 C15.951,41.448 15.545,40.990 15.545,40.428 L15.545,39.425 L15.474,38.804 L8.988,38.804 L8.988,38.930 L10.978,40.972 L9.458,42.531 L10.978,44.092 L9.458,45.652 L10.978,47.212 L9.458,48.773 L10.978,50.334 L9.458,51.893 L10.978,53.453 L9.458,55.014 L10.978,56.574 L9.458,58.135 L10.978,59.694 L9.458,61.254 L10.978,62.815 L9.762,64.062 L13.205,64.062 L13.205,68.961 L-0.001,68.961 L-0.001,64.062 L4.211,64.062 L4.211,20.848 L8.988,20.848 L8.988,35.538 L15.119,35.538 C14.659,30.895 14.275,25.094 14.347,21.642 C14.406,18.615 15.382,15.996 17.222,13.800 L16.992,13.800 C15.949,13.800 15.099,12.928 15.099,11.860 L15.099,11.859 C15.099,10.791 15.949,9.919 16.992,9.919 L19.005,9.919 C19.501,9.919 19.949,10.121 20.287,10.443 L23.611,3.725 C24.341,2.233 25.599,1.236 27.153,0.916 C30.069,0.324 34.747,-0.008 39.991,-0.008 C45.230,-0.008 49.908,0.324 52.824,0.916 C54.373,1.236 55.630,2.228 56.371,3.720 L59.690,10.442 C60.028,10.120 60.476,9.919 60.971,9.919 L62.986,9.919 C64.027,9.919 64.878,10.791 64.878,11.859 L64.878,11.860 C64.878,12.928 64.027,13.800 62.986,13.800 L62.755,13.800 C64.595,15.996 65.572,18.613 65.635,21.636 C65.703,25.081 65.322,30.889 64.863,35.538 L70.989,35.538 L70.989,20.848 L75.766,20.848 L75.766,64.062 L79.978,64.062 L79.978,68.961 L66.771,68.961 ZM56.986,15.094 L56.983,15.092 C51.353,14.433 45.612,14.075 39.772,14.075 C34.113,14.075 28.548,14.413 23.085,15.031 L22.991,15.094 C20.631,16.680 19.439,18.511 19.184,20.944 C21.347,22.087 24.880,22.947 27.555,22.947 L28.511,26.358 L19.227,26.358 C19.355,29.010 19.582,32.003 19.833,34.620 L29.286,34.620 L30.032,30.607 L49.946,30.607 L50.692,34.620 L60.144,34.620 C60.398,31.999 60.624,29.007 60.753,26.358 L51.465,26.358 L52.423,22.947 C55.098,22.947 58.635,22.086 60.798,20.941 C60.541,18.509 59.345,16.679 56.986,15.094 ZM32.334,26.358 L31.112,21.663 L48.867,21.663 L47.644,26.358 L32.334,26.358 ZM22.271,33.019 C21.469,33.019 20.816,32.349 20.816,31.527 C20.816,30.705 21.469,30.035 22.271,30.035 C23.073,30.035 23.727,30.705 23.727,31.527 C23.727,32.349 23.073,33.019 22.271,33.019 ZM57.707,30.035 C58.508,30.035 59.162,30.705 59.162,31.527 C59.162,32.349 58.508,33.019 57.707,33.019 C56.905,33.019 56.251,32.349 56.251,31.527 C56.251,30.705 56.905,30.035 57.707,30.035 Z" class="cls-1"/>
</svg>

