<svg xmlns="http://www.w3.org/2000/svg" xmlns:xlink="http://www.w3.org/1999/xlink" preserveAspectRatio="xMidYMid" width="68" height="69" viewBox="0 0 68 69">
  <defs>
    <style>
      .cls-1 {
        fill: #e13b30;
        fill-rule: evenodd;
      }
    </style>
  </defs>
  <path d="M61.978,16.312 C59.812,17.049 57.450,17.124 55.892,18.691 L44.575,30.067 L48.645,34.159 C50.348,35.872 50.348,38.664 48.645,40.376 L48.495,40.527 L62.609,51.634 C72.000,59.022 59.445,74.049 51.171,64.487 L37.177,48.314 C36.803,48.966 36.566,49.692 36.526,50.456 C36.444,51.937 35.873,53.216 34.836,54.260 L24.166,64.987 C21.552,67.615 18.408,69.004 15.078,69.004 C9.841,69.004 4.712,65.428 2.605,60.313 C0.608,55.476 1.735,50.251 5.623,46.343 L16.292,35.617 C17.330,34.574 18.603,34.000 20.071,33.917 C21.044,33.866 21.957,33.509 22.722,32.922 C17.488,29.223 13.761,29.333 8.341,27.356 C-0.328,24.197 -2.170,12.397 2.493,5.504 L6.861,15.478 L9.200,16.394 L11.541,17.309 L15.305,15.643 L17.602,14.628 L18.513,12.276 L19.422,9.922 L15.073,-0.008 C22.346,0.727 29.058,6.786 29.710,15.317 C29.951,18.464 29.846,20.191 30.062,21.773 L30.101,21.733 C31.751,20.080 34.636,20.076 36.285,21.733 L40.355,25.824 L51.672,14.448 C53.230,12.881 53.305,10.507 54.036,8.329 C57.419,6.765 61.480,3.835 64.861,2.271 C65.909,3.324 66.955,4.377 68.004,5.430 C66.448,8.830 63.534,12.913 61.978,16.312 ZM55.005,60.337 C56.217,61.406 58.062,61.287 59.127,60.070 C60.192,58.853 60.074,56.997 58.863,55.927 C57.651,54.856 55.806,54.975 54.741,56.193 C53.676,57.411 53.794,59.266 55.005,60.337 ZM31.497,23.136 L32.892,24.539 L29.104,28.347 C28.755,28.698 28.593,29.062 28.570,29.549 C28.447,31.727 27.541,33.767 26.010,35.307 C24.479,36.851 22.445,37.762 20.284,37.881 C19.794,37.908 19.432,38.067 19.083,38.423 L8.414,49.149 C4.635,52.948 5.437,56.824 6.248,58.796 C7.761,62.472 11.395,65.036 15.078,65.036 C17.370,65.036 19.491,64.076 21.375,62.181 L32.045,51.454 C32.398,51.103 32.557,50.739 32.584,50.242 C32.702,48.074 33.608,46.029 35.139,44.490 C36.671,42.954 38.700,42.039 40.861,41.916 C41.351,41.889 41.722,41.725 42.066,41.379 L45.854,37.571 C46.017,37.407 46.017,37.129 45.854,36.965 L44.842,35.948 L42.753,38.049 C42.236,38.569 41.388,38.570 40.870,38.049 C40.354,37.528 40.353,36.679 40.870,36.158 L42.961,34.056 L41.357,32.444 L40.011,33.799 C39.087,34.729 37.569,34.729 36.643,33.799 C35.717,32.868 35.717,31.344 36.643,30.413 L37.990,29.059 L36.386,27.447 L34.297,29.548 C33.780,30.066 32.933,30.068 32.415,29.548 C31.897,29.028 31.897,28.177 32.415,27.658 L34.506,25.556 L33.494,24.539 L31.497,23.136 ZM20.145,60.777 C19.629,61.295 18.781,61.297 18.264,60.777 C17.747,60.258 17.747,59.404 18.264,58.885 L28.671,48.423 C29.189,47.904 30.035,47.904 30.553,48.423 C31.071,48.944 31.070,49.797 30.553,50.315 L20.145,60.777 ZM17.404,56.526 C16.478,57.456 14.961,57.459 14.035,56.526 C13.110,55.596 13.110,54.072 14.035,53.142 L22.957,44.174 C23.883,43.242 25.399,43.242 26.325,44.174 C27.252,45.105 27.250,46.629 26.325,47.558 L17.404,56.526 ZM11.689,52.276 C11.174,52.795 10.326,52.797 9.809,52.276 C9.291,51.756 9.291,50.904 9.809,50.383 L20.216,39.923 C20.733,39.402 21.580,39.402 22.099,39.923 C22.615,40.443 22.614,41.295 22.099,41.813 L11.689,52.276 Z" class="cls-1"/>
</svg>

