<svg xmlns="http://www.w3.org/2000/svg" xmlns:xlink="http://www.w3.org/1999/xlink" preserveAspectRatio="xMidYMid" width="77" height="68" viewBox="0 0 77 68">
  <defs>
    <style>
      .cls-1 {
        fill: #e13b30;
        fill-rule: evenodd;
      }
    </style>
  </defs>
  <path d="M44.059,57.292 L44.059,63.647 L53.257,63.647 L53.257,67.994 L23.734,67.994 L23.734,63.647 L32.932,63.647 L32.932,57.292 L-0.011,57.292 L-0.011,0.001 L77.002,0.001 L77.002,57.292 L44.059,57.292 ZM72.647,4.347 L4.344,4.347 L4.344,52.945 L72.647,52.945 L72.647,4.347 ZM32.961,35.734 L40.536,7.520 L46.844,31.017 L54.085,31.017 C54.883,29.469 56.483,28.395 58.344,28.395 C60.992,28.395 63.151,30.548 63.151,33.191 C63.151,35.833 60.992,37.988 58.344,37.988 C56.483,37.988 54.883,36.913 54.085,35.364 L43.500,35.364 L40.536,24.327 L34.443,47.005 L27.714,35.364 L9.927,35.364 L9.927,31.017 L30.228,31.017 L32.961,35.734 Z" class="cls-1"/>
</svg>

