<svg xmlns="http://www.w3.org/2000/svg" xmlns:xlink="http://www.w3.org/1999/xlink" preserveAspectRatio="xMidYMid" width="50.969" height="68.125" viewBox="0 0 50.969 68.125">
  <defs>
    <style>
      .cls-1 {
        fill: #e13b30;
        fill-rule: evenodd;
      }
    </style>
  </defs>
  <path d="M46.964,68.117 L46.964,60.417 C46.964,55.110 43.817,50.416 39.168,48.138 L39.168,54.018 L43.171,54.018 L43.171,68.117 L40.491,68.117 L40.491,56.632 L10.493,56.632 L10.493,68.117 L7.813,68.117 L7.813,54.018 L11.814,54.018 L11.814,48.138 C7.164,50.416 4.020,55.110 4.020,60.417 L4.020,68.117 L0.001,68.117 L0.001,60.417 C0.001,52.708 5.152,45.999 12.428,43.642 C10.910,41.629 9.738,39.439 8.944,37.122 C7.466,36.364 6.446,34.869 6.446,33.127 C6.446,31.925 6.934,30.840 7.716,30.029 C7.713,29.881 7.698,29.735 7.698,29.587 C7.698,28.625 7.748,27.710 7.826,26.822 C7.504,26.232 7.216,25.660 6.950,25.126 L6.071,23.431 L6.963,16.010 C7.624,10.422 9.467,6.619 12.757,4.042 C19.636,-1.352 31.103,-1.361 37.987,4.042 C41.276,6.624 43.120,10.427 43.785,16.015 L44.672,23.431 L43.795,25.126 C43.586,25.544 43.362,25.988 43.121,26.443 C43.221,27.449 43.287,28.486 43.287,29.587 C43.287,29.736 43.271,29.882 43.268,30.030 C44.050,30.841 44.538,31.926 44.538,33.127 C44.538,34.868 43.518,36.363 42.041,37.122 C41.247,39.438 40.074,41.629 38.556,43.642 C45.832,46.000 50.983,52.712 50.983,60.417 L50.983,68.117 L46.964,68.117 ZM17.298,54.018 L33.686,54.018 L33.686,48.653 C31.044,50.691 28.304,51.747 25.494,51.747 C22.681,51.747 19.941,50.691 17.298,48.653 L17.298,54.018 ZM39.789,16.470 C39.244,11.905 37.913,9.017 35.464,7.097 C29.994,2.812 20.731,2.816 15.279,7.097 C12.831,9.017 11.500,11.905 10.960,16.465 L10.358,21.482 C19.710,20.491 31.052,20.494 40.392,21.490 L39.789,16.470 ZM10.894,24.059 C11.690,25.623 12.646,27.312 14.286,28.758 C14.452,28.911 16.527,28.848 18.869,28.199 C20.837,27.658 23.064,27.045 25.374,27.045 C27.680,27.045 29.906,27.658 31.875,28.199 C34.217,28.848 36.291,28.911 36.458,28.758 C38.096,27.314 39.050,25.628 39.846,24.067 C30.823,23.124 19.927,23.122 10.894,24.059 ZM39.129,31.687 C38.213,32.484 37.032,32.890 35.612,32.890 C35.100,32.891 34.572,32.828 34.036,32.742 C33.892,33.986 32.817,34.962 31.504,34.962 C30.093,34.962 28.944,33.840 28.944,32.464 C28.944,32.136 29.013,31.825 29.131,31.538 C27.865,31.220 26.594,30.965 25.374,30.965 C24.225,30.965 23.028,31.194 21.833,31.486 C21.965,31.787 22.039,32.117 22.039,32.464 C22.039,33.840 20.888,34.962 19.478,34.962 C18.128,34.962 17.027,33.931 16.934,32.637 C14.932,32.934 13.153,32.811 11.865,31.859 C12.271,35.347 13.597,38.637 15.783,41.478 C22.265,49.900 28.710,49.909 35.201,41.478 C37.423,38.591 38.750,35.239 39.129,31.687 ZM19.436,17.756 C17.328,17.756 15.619,16.088 15.619,14.032 C15.619,13.687 15.667,13.353 15.756,13.037 L16.078,13.350 L17.712,14.945 L18.761,14.671 L19.811,14.397 L20.092,13.373 L20.373,12.350 L18.739,10.756 L18.416,10.443 C18.741,10.355 19.083,10.308 19.436,10.308 C20.872,10.308 22.122,11.081 22.775,12.223 L27.970,12.223 C28.622,11.081 29.872,10.308 31.308,10.308 C33.416,10.308 35.126,11.974 35.126,14.032 C35.126,14.376 35.078,14.710 34.988,15.026 L34.668,14.712 L33.031,13.118 L31.983,13.392 L30.934,13.666 L30.653,14.690 L30.372,15.713 L32.007,17.307 L32.327,17.621 C32.003,17.708 31.661,17.756 31.308,17.756 C29.872,17.756 28.622,16.981 27.970,15.840 L22.775,15.840 C22.123,16.981 20.872,17.756 19.436,17.756 ZM14.555,58.480 C15.967,58.480 17.117,59.601 17.117,60.977 C17.117,62.353 15.967,63.475 14.555,63.475 C13.145,63.475 11.996,62.353 11.996,60.977 C11.996,59.601 13.145,58.480 14.555,58.480 ZM36.427,58.480 C37.838,58.480 38.988,59.601 38.988,60.977 C38.988,62.353 37.838,63.475 36.427,63.475 C35.016,63.475 33.866,62.353 33.866,60.977 C33.866,59.601 35.016,58.480 36.427,58.480 Z" class="cls-1"/>
</svg>

