<svg height="92.44222499999995" version="1.1" width="152.29812500000003" xmlns="http://www.w3.org/2000/svg" xmlns:xlink="http://www.w3.org/1999/xlink" style="overflow: hidden; position: relative; top: -0.625px;" viewBox="227.22727499999996 201.88610000000006 152.29812500000003 92.44222499999995" preserveAspectRatio="xMinYMin" id="main_svg"><desc style="-webkit-tap-highlight-color: rgba(0, 0, 0, 0);">Created with Logotizer</desc><defs style="-webkit-tap-highlight-color: rgba(0, 0, 0, 0);"></defs><path fill="#351abd" stroke="none" d="M-271.96,0L-259.87,-33.84L-255.02,-33.84L-242.92,0L-249.84,0L-252.53,-7.43L-262.84,-7.43L-265.38,0L-271.96,0M-261.16,-12.73L-253.96,-12.73L-256.45,-20.2L-257.48,-25.48L-257.71,-25.48L-258.72,-20.16L-261.16,-12.73ZM-240.04,-0.23L-240.04,-33.35Q-239.13,-33.49,-237.95,-33.64Q-236.78,-33.8,-235.43,-33.89Q-234.09,-33.98,-232.67,-34.03Q-231.25,-34.08,-229.87,-34.08Q-227.52,-34.08,-225.29,-33.71Q-223.05,-33.35,-221.3,-32.45Q-219.55,-31.55,-218.5,-29.91Q-217.45,-28.27,-217.45,-25.78Q-217.45,-24.54,-217.75,-23.29Q-218.05,-22.03,-218.78,-21Q-219.51,-19.97,-220.66,-19.17Q-221.8,-18.38,-223.45,-18L-223.45,-17.72Q-222.02,-17.48,-220.7,-16.9Q-219.39,-16.31,-218.44,-15.3Q-217.49,-14.3,-216.93,-12.86Q-216.37,-11.41,-216.37,-9.45Q-216.37,-6.84,-217.48,-4.96Q-218.59,-3.07,-220.43,-1.88Q-222.27,-0.68,-224.63,-0.11Q-226.98,0.47,-229.49,0.47Q-230.31,0.47,-231.58,0.47Q-232.84,0.47,-234.31,0.4Q-235.77,0.33,-237.29,0.19Q-238.8,0.05,-240.04,-0.23M-233.71,-5.23Q-233.48,-5.13,-232.94,-5.09Q-232.4,-5.04,-231.8,-5.02Q-231.2,-4.99,-230.56,-4.97Q-229.91,-4.95,-229.45,-4.95Q-228.25,-4.95,-227.11,-5.24Q-225.98,-5.53,-225.11,-6.13Q-224.24,-6.73,-223.71,-7.64Q-223.19,-8.55,-223.19,-9.8Q-223.19,-11.39,-223.82,-12.29Q-224.45,-13.2,-225.46,-13.7Q-226.47,-14.2,-227.71,-14.34Q-228.95,-14.48,-230.2,-14.48L-233.71,-14.48L-233.71,-5.23M-233.71,-19.48L-231.6,-19.48Q-230.92,-19.48,-230.03,-19.54Q-229.14,-19.59,-228.58,-19.69Q-226.75,-20.27,-225.43,-21.42Q-224.1,-22.57,-224.1,-24.42Q-224.1,-25.66,-224.58,-26.48Q-225.06,-27.3,-225.86,-27.79Q-226.66,-28.27,-227.66,-28.46Q-228.67,-28.66,-229.77,-28.66Q-231.02,-28.66,-232.07,-28.62Q-233.13,-28.57,-233.71,-28.45L-233.71,-19.48ZM-214.7,-27.75L-214.7,-33.61L-188.5,-33.61L-188.5,-27.75L-198.3,-27.75L-198.3,0L-204.88,0L-204.88,-27.75L-214.7,-27.75ZM-188.03,-16.8Q-188.03,-25.2,-184.34,-29.73Q-180.65,-34.27,-173.78,-34.27Q-170.17,-34.27,-167.49,-33.02Q-164.8,-31.78,-163.02,-29.47Q-161.24,-27.16,-160.39,-23.95Q-159.53,-20.74,-159.53,-16.8Q-159.53,-8.41,-163.25,-3.87Q-166.96,0.68,-173.78,0.68Q-177.44,0.68,-180.12,-0.57Q-182.8,-1.83,-184.55,-4.13Q-186.3,-6.42,-187.16,-9.64Q-188.03,-12.87,-188.03,-16.8M-181.12,-16.8Q-181.12,-14.25,-180.68,-12.12Q-180.25,-9.98,-179.37,-8.45Q-178.49,-6.91,-177.1,-6.05Q-175.7,-5.18,-173.78,-5.18Q-170.27,-5.18,-168.36,-7.92Q-166.45,-10.66,-166.45,-16.8Q-166.45,-19.24,-166.84,-21.35Q-167.24,-23.46,-168.11,-25.05Q-168.98,-26.65,-170.37,-27.53Q-171.77,-28.41,-173.78,-28.41Q-177.3,-28.41,-179.21,-25.61Q-181.12,-22.8,-181.12,-16.8ZM-155.88,-16.8Q-155.88,-21.75,-154.5,-25.08Q-153.13,-28.41,-150.95,-30.45Q-148.77,-32.48,-146.09,-33.38Q-143.41,-34.27,-140.71,-34.27Q-137.83,-34.27,-135.84,-33.89Q-133.84,-33.52,-132.55,-32.98L-133.84,-27.4Q-134.95,-27.94,-136.46,-28.17Q-137.97,-28.41,-140.13,-28.41Q-144.11,-28.41,-146.54,-25.58Q-148.96,-22.76,-148.96,-16.8Q-148.96,-14.2,-148.39,-12.07Q-147.81,-9.94,-146.64,-8.43Q-145.47,-6.91,-143.71,-6.07Q-141.95,-5.23,-139.66,-5.23Q-137.5,-5.23,-136.01,-5.66Q-134.52,-6.09,-133.42,-6.77L-132.06,-1.38Q-133.61,-0.28,-135.99,0.2Q-138.37,0.68,-140.85,0.68Q-143.88,0.68,-146.59,-0.26Q-149.31,-1.2,-151.38,-3.28Q-153.44,-5.37,-154.66,-8.71Q-155.88,-12.05,-155.88,-16.8ZM-128.01,0L-128.01,-33.61L-108.09,-33.61L-108.09,-27.75L-121.45,-27.75L-121.45,-19.92L-109.28,-19.92L-109.28,-14.06L-121.45,-14.06L-121.45,-5.86L-107.85,-5.86L-107.85,0L-128.01,0ZM-102.95,0L-102.95,-33.26Q-100.94,-33.63,-98.51,-33.86Q-96.09,-34.08,-93.7,-34.08Q-91.21,-34.08,-88.68,-33.67Q-86.15,-33.26,-84.13,-32.04Q-82.12,-30.82,-80.85,-28.63Q-79.59,-26.44,-79.59,-22.95Q-79.59,-19.78,-80.69,-17.59Q-81.79,-15.4,-83.62,-14.02Q-85.45,-12.63,-87.77,-12Q-90.09,-11.37,-92.59,-11.37Q-92.83,-11.37,-93.36,-11.37Q-93.88,-11.37,-94.46,-11.39Q-95.03,-11.41,-95.58,-11.47Q-96.13,-11.53,-96.39,-11.58L-96.39,0L-102.95,0M-96.39,-17.27Q-96.2,-17.23,-95.82,-17.18Q-95.43,-17.13,-95,-17.11Q-94.56,-17.09,-94.15,-17.09Q-93.74,-17.09,-93.55,-17.09Q-92.27,-17.09,-90.99,-17.33Q-89.71,-17.58,-88.7,-18.22Q-87.7,-18.87,-87.1,-20.02Q-86.5,-21.16,-86.5,-23.04Q-86.5,-24.63,-87.07,-25.66Q-87.65,-26.7,-88.59,-27.32Q-89.52,-27.94,-90.72,-28.17Q-91.91,-28.41,-93.16,-28.41Q-94.12,-28.41,-94.98,-28.34Q-95.85,-28.27,-96.39,-28.17L-96.39,-17.27ZM-75.51,-0.23L-75.51,-33.35Q-74.59,-33.49,-73.42,-33.64Q-72.25,-33.8,-70.9,-33.89Q-69.55,-33.98,-68.14,-34.03Q-66.72,-34.08,-65.34,-34.08Q-62.99,-34.08,-60.75,-33.71Q-58.52,-33.35,-56.77,-32.45Q-55.02,-31.55,-53.97,-29.91Q-52.91,-28.27,-52.91,-25.78Q-52.91,-24.54,-53.22,-23.29Q-53.52,-22.03,-54.25,-21Q-54.98,-19.97,-56.13,-19.17Q-57.27,-18.38,-58.91,-18L-58.91,-17.72Q-57.48,-17.48,-56.17,-16.9Q-54.86,-16.31,-53.91,-15.3Q-52.96,-14.3,-52.4,-12.86Q-51.84,-11.41,-51.84,-9.45Q-51.84,-6.84,-52.95,-4.96Q-54.06,-3.07,-55.9,-1.88Q-57.74,-0.68,-60.1,-0.11Q-62.45,0.47,-64.96,0.47Q-65.78,0.47,-67.05,0.47Q-68.31,0.47,-69.78,0.4Q-71.24,0.33,-72.75,0.19Q-74.27,0.05,-75.51,-0.23M-69.18,-5.23Q-68.95,-5.13,-68.41,-5.09Q-67.87,-5.04,-67.27,-5.02Q-66.67,-4.99,-66.03,-4.97Q-65.38,-4.95,-64.91,-4.95Q-63.72,-4.95,-62.58,-5.24Q-61.45,-5.53,-60.58,-6.13Q-59.71,-6.73,-59.18,-7.64Q-58.66,-8.55,-58.66,-9.8Q-58.66,-11.39,-59.29,-12.29Q-59.92,-13.2,-60.93,-13.7Q-61.94,-14.2,-63.18,-14.34Q-64.42,-14.48,-65.66,-14.48L-69.18,-14.48L-69.18,-5.23M-69.18,-19.48L-67.07,-19.48Q-66.39,-19.48,-65.5,-19.54Q-64.61,-19.59,-64.05,-19.69Q-62.22,-20.27,-60.89,-21.42Q-59.57,-22.57,-59.57,-24.42Q-59.57,-25.66,-60.05,-26.48Q-60.53,-27.3,-61.33,-27.79Q-62.13,-28.27,-63.13,-28.46Q-64.14,-28.66,-65.24,-28.66Q-66.48,-28.66,-67.54,-28.62Q-68.59,-28.57,-69.18,-28.45L-69.18,-19.48ZM-47.15,0L-47.15,-33.61L-40.59,-33.61L-40.59,-15.3L-41.05,-10.8L-40.77,-10.8L-38.41,-15.45L-25.89,-33.61L-20.99,-33.61L-20.99,0L-27.58,0L-27.58,-18.63L-27.18,-22.99L-27.41,-22.99L-29.69,-18.47L-42.2,0L-47.15,0ZM-16.26,-16.8Q-16.26,-21.75,-14.89,-25.08Q-13.52,-28.41,-11.34,-30.45Q-9.16,-32.48,-6.47,-33.38Q-3.79,-34.27,-1.09,-34.27Q1.79,-34.27,3.78,-33.89Q5.77,-33.52,7.06,-32.98L5.77,-27.4Q4.67,-27.94,3.16,-28.17Q1.65,-28.41,-0.51,-28.41Q-4.49,-28.41,-6.92,-25.58Q-9.34,-22.76,-9.34,-16.8Q-9.34,-14.2,-8.77,-12.07Q-8.2,-9.94,-7.02,-8.43Q-5.85,-6.91,-4.09,-6.07Q-2.34,-5.23,-0.04,-5.23Q2.12,-5.23,3.61,-5.66Q5.09,-6.09,6.2,-6.77L7.55,-1.38Q6.01,-0.28,3.63,0.2Q1.25,0.68,-1.23,0.68Q-4.26,0.68,-6.98,-0.26Q-9.7,-1.2,-11.76,-3.28Q-13.82,-5.37,-15.04,-8.71Q-16.26,-12.05,-16.26,-16.8ZM20.14,-16.8Q20.14,-21.75,21.51,-25.08Q22.88,-28.41,25.06,-30.45Q27.24,-32.48,29.93,-33.38Q32.61,-34.27,35.3,-34.27Q38.19,-34.27,40.18,-33.89Q42.17,-33.52,43.46,-32.98L42.17,-27.4Q41.07,-27.94,39.56,-28.17Q38.05,-28.41,35.89,-28.41Q31.91,-28.41,29.48,-25.58Q27.05,-22.76,27.05,-16.8Q27.05,-14.2,27.63,-12.07Q28.2,-9.94,29.38,-8.43Q30.55,-6.91,32.3,-6.07Q34.06,-5.23,36.36,-5.23Q38.52,-5.23,40,-5.66Q41.49,-6.09,42.59,-6.77L43.95,-1.38Q42.41,-0.28,40.03,0.2Q37.65,0.68,35.16,0.68Q32.14,0.68,29.42,-0.26Q26.7,-1.2,24.64,-3.28Q22.58,-5.37,21.36,-8.71Q20.14,-12.05,20.14,-16.8ZM45.38,-27.75L45.38,-33.61L71.59,-33.61L71.59,-27.75L61.79,-27.75L61.79,0L55.2,0L55.2,-27.75L45.38,-27.75ZM72.05,-16.8Q72.05,-25.2,75.75,-29.73Q79.44,-34.27,86.3,-34.27Q89.91,-34.27,92.6,-33.02Q95.28,-31.78,97.06,-29.47Q98.84,-27.16,99.7,-23.95Q100.55,-20.74,100.55,-16.8Q100.55,-8.41,96.84,-3.87Q93.13,0.68,86.3,0.68Q82.65,0.68,79.96,-0.57Q77.28,-1.83,75.54,-4.13Q73.79,-6.42,72.92,-9.64Q72.05,-12.87,72.05,-16.8M78.97,-16.8Q78.97,-14.25,79.4,-12.12Q79.84,-9.98,80.71,-8.45Q81.59,-6.91,82.99,-6.05Q84.38,-5.18,86.3,-5.18Q89.82,-5.18,91.73,-7.92Q93.64,-10.66,93.64,-16.8Q93.64,-19.24,93.24,-21.35Q92.84,-23.46,91.98,-25.05Q91.11,-26.65,89.71,-27.53Q88.32,-28.41,86.3,-28.41Q82.79,-28.41,80.88,-25.61Q78.97,-22.8,78.97,-16.8ZM116.77,-0.23L116.77,-33.35Q117.69,-33.49,118.86,-33.64Q120.03,-33.8,121.38,-33.89Q122.73,-33.98,124.14,-34.03Q125.56,-34.08,126.95,-34.08Q129.29,-34.08,131.53,-33.71Q133.77,-33.35,135.51,-32.45Q137.26,-31.55,138.31,-29.91Q139.37,-28.27,139.37,-25.78Q139.37,-24.54,139.06,-23.29Q138.76,-22.03,138.03,-21Q137.3,-19.97,136.16,-19.17Q135.01,-18.38,133.37,-18L133.37,-17.72Q134.8,-17.48,136.11,-16.9Q137.42,-16.31,138.37,-15.3Q139.32,-14.3,139.88,-12.86Q140.45,-11.41,140.45,-9.45Q140.45,-6.84,139.33,-4.96Q138.22,-3.07,136.38,-1.88Q134.54,-0.68,132.18,-0.11Q129.83,0.47,127.32,0.47Q126.5,0.47,125.23,0.47Q123.97,0.47,122.5,0.4Q121.04,0.33,119.53,0.19Q118.02,0.05,116.77,-0.23M123.1,-5.23Q123.34,-5.13,123.88,-5.09Q124.41,-5.04,125.01,-5.02Q125.61,-4.99,126.25,-4.97Q126.9,-4.95,127.37,-4.95Q128.56,-4.95,129.7,-5.24Q130.84,-5.53,131.7,-6.13Q132.57,-6.73,133.1,-7.64Q133.63,-8.55,133.63,-9.8Q133.63,-11.39,132.99,-12.29Q132.36,-13.2,131.35,-13.7Q130.34,-14.2,129.1,-14.34Q127.86,-14.48,126.62,-14.48L123.1,-14.48L123.1,-5.23M123.1,-19.48L125.21,-19.48Q125.89,-19.48,126.78,-19.54Q127.67,-19.59,128.23,-19.69Q130.06,-20.27,131.39,-21.42Q132.71,-22.57,132.71,-24.42Q132.71,-25.66,132.23,-26.48Q131.75,-27.3,130.95,-27.79Q130.16,-28.27,129.15,-28.46Q128.14,-28.66,127.04,-28.66Q125.8,-28.66,124.74,-28.62Q123.69,-28.57,123.1,-28.45L123.1,-19.48ZM144.99,0L144.99,-24L151.23,-24L151.23,-12.59L150.95,-9.3L151.13,-9.3L153.1,-12.73L161.73,-24L165.66,-24L165.66,0L159.43,0L159.43,-10.95L159.66,-14.34L159.52,-14.34L157.46,-10.85L148.93,0L144.99,0ZM171.15,0L171.15,-24L177.38,-24L177.38,-13.78L178.86,-14.44L184.48,-24L191.16,-24L185.35,-14.88L182.89,-13.05L185.59,-11.18L192.08,0L184.93,0L179.07,-9.94L177.38,-9.94L177.38,0L171.15,0ZM194.61,0L194.61,-24L200.84,-24L200.84,-12.59L200.56,-9.3L200.75,-9.3L202.72,-12.73L211.34,-24L215.28,-24L215.28,0L209.05,0L209.05,-10.95L209.28,-14.34L209.14,-14.34L207.08,-10.85L198.55,0L194.61,0ZM220.77,0L220.77,-24L227,-24L227,-14.98L234.83,-14.98L234.83,-24L241.06,-24L241.06,0L234.83,0L234.83,-9.45L227,-9.45L227,0L220.77,0ZM246.52,0L246.52,-24L262.02,-24L262.02,-18.47L252.95,-18.47L252.95,0L246.52,0Z" transform="matrix(0.28,0,0,0.28,303.4004,289.3277)" style="-webkit-tap-highlight-color: rgba(0, 0, 0, 0);" stroke-width="1"></path><path fill="#4420ff" stroke="none" d="M131.501,75.028C131.501,73.408,128.211,73.11500000000001,125.697,73.11500000000001C124.652,73.11500000000001,123.741,73.165,123.257,73.19300000000001C121.608,73.28500000000001,122.15700000000001,76.67800000000001,122.15700000000001,77.22900000000001A6.417,6.417,0,0,1,120.66700000000002,79.25700000000002A11.097,11.097,0,0,1,120.05100000000002,78.42100000000002C118.76900000000002,76.40300000000002,110.15900000000002,62.73800000000002,106.58700000000002,59.52700000000002C103.38200000000002,56.64700000000002,84.32600000000002,56.49800000000002,80.44200000000002,56.49800000000002C79.99700000000003,56.49800000000002,79.75100000000002,56.50000000000002,79.75100000000002,56.50000000000002S79.52400000000002,56.49800000000002,79.11100000000002,56.49800000000002C75.34400000000002,56.49800000000002,56.13500000000002,56.64100000000002,52.91600000000002,59.53400000000002C49.344000000000015,62.74400000000002,40.734000000000016,76.41000000000003,39.45200000000002,78.42800000000003C39.31200000000002,78.64800000000002,39.10000000000002,78.93100000000003,38.83700000000002,79.26400000000002A6.4,6.4,0,0,1,37.34600000000002,77.23600000000002C37.34600000000002,76.68500000000002,37.89200000000002,73.30000000000001,36.246000000000016,73.20000000000002A40.414,40.414,0,0,0,33.786000000000016,73.11800000000002C31.275000000000016,73.11800000000002,28.000000000000014,73.41600000000003,28.000000000000014,75.03100000000002C28.000000000000014,77.32400000000003,34.13800000000001,77.87300000000002,34.871000000000016,78.60700000000001S37.362000000000016,81.05400000000002,37.362000000000016,81.05400000000002C34.759000000000015,84.19500000000002,30.776000000000018,89.12000000000002,30.10800000000002,93.31300000000002A60.585,60.585,0,0,0,29.70800000000002,102.14300000000001C43.5,107.691,60.873,111,79.75,111S116,107.691,129.79399999999998,102.139A60.55,60.55,0,0,0,129.39399999999998,93.31099999999999C128.72599999999997,89.118,124.73999999999998,84.193,122.13999999999997,81.05199999999999C122.13999999999997,81.05199999999999,123.89799999999997,79.339,124.63099999999997,78.60499999999999S131.50099999999998,77.32099999999998,131.50099999999998,75.02799999999999ZM105.399,101.44500000000001H105.4C103.35900000000001,106.828,92.4,107.70400000000001,85.48400000000001,107.70400000000001C82.147,107.70400000000001,79.751,107.50000000000001,79.751,107.50000000000001S77.35600000000001,107.70400000000001,74.018,107.70400000000001C67.102,107.70400000000001,56.144000000000005,106.828,54.106,101.44500000000001H105.399ZM107.68900000000001,95.75900000000001L105.94500000000001,99.97700000000002L79.751,99.88600000000002L53.557,99.97700000000002L51.817,95.75900000000001H107.689ZM113.22500000000001,77.25000000000001L79.751,77.05000000000001L46.32000000000001,77.25000000000001S54.24300000000001,64.08200000000002,56.29100000000001,62.222000000000016C58.81700000000001,59.926000000000016,74.03800000000001,59.75500000000002,78.528,59.75500000000002C79.31700000000001,59.75500000000002,79.775,59.76000000000002,79.775,59.76000000000002S80.235,59.75500000000002,81.02900000000001,59.75500000000002C85.531,59.75500000000002,100.73500000000001,59.927000000000014,103.26000000000002,62.222000000000016H103.25700000000002C105.30000000000003,64.08200000000002,113.22500000000002,77.25000000000001,113.22500000000002,77.25000000000001ZM108.88400000000001,103.27700000000002S110.25900000000001,95.81700000000002,114.28400000000002,93.31000000000002C117.39400000000002,91.37300000000002,121.00200000000002,89.28800000000001,122.77800000000002,89.28800000000001A0.961,0.961,0,0,1,123.80900000000003,89.88600000000001C124.45000000000003,91.72300000000001,127.01400000000002,97.77700000000002,123.07600000000002,99.88600000000001H123.07300000000002C119.13500000000002,102.00000000000001,108.88400000000001,103.27700000000002,108.88400000000001,103.27700000000002ZM35.7,89.889A0.958,0.958,0,0,1,36.730000000000004,89.29299999999999C38.505,89.29299999999999,42.121,91.37799999999999,45.233000000000004,93.31599999999999C49.259,95.823,50.633,103.28299999999999,50.633,103.28299999999999S40.371,102.00099999999999,36.43300000000001,99.88899999999998S35.059000000000005,91.72299999999998,35.70000000000001,89.88899999999998Z" stroke-width="0" opacity="1" transform="matrix(1.3,0,0,1.3,197.0747,128.4387)" style="-webkit-tap-highlight-color: rgba(0, 0, 0, 0); opacity: 1;"></path></svg>
